G04*
G04 #@! TF.GenerationSoftware,Altium Limited,Altium Designer,22.9.1 (49)*
G04*
G04 Layer_Physical_Order=1*
G04 Layer_Color=255*
%FSLAX25Y25*%
%MOIN*%
G70*
G04*
G04 #@! TF.SameCoordinates,D6CDF33A-5527-4A7C-ACAA-F1F7B6BCBC96*
G04*
G04*
G04 #@! TF.FilePolarity,Positive*
G04*
G01*
G75*
%ADD12C,0.01000*%
%ADD13R,0.03347X0.02953*%
%ADD14O,0.09843X0.02756*%
%ADD15C,0.00394*%
%ADD16C,0.01181*%
%ADD17R,0.03543X0.03150*%
%ADD18R,0.03150X0.03543*%
%ADD19R,0.23622X0.07480*%
%ADD20R,0.02953X0.03347*%
%ADD21R,0.03150X0.03150*%
%ADD22R,0.02756X0.03543*%
%ADD23C,0.00500*%
%ADD35C,0.05906*%
%ADD36R,0.05906X0.05906*%
%ADD37C,0.01968*%
G36*
X155512Y71177D02*
X130890D01*
Y68150D01*
X130428Y67959D01*
X129053Y69334D01*
X128557Y69665D01*
X128091Y69758D01*
Y71728D01*
X128331D01*
Y77272D01*
X123181D01*
Y77272D01*
X122819D01*
Y77272D01*
X120744D01*
Y74500D01*
X120244D01*
Y74000D01*
X117669D01*
Y71831D01*
X113228D01*
Y70997D01*
X112728Y70762D01*
X112125Y71165D01*
X111197Y71350D01*
X104110D01*
X103182Y71165D01*
X102595Y70773D01*
X102376Y70682D01*
X101818Y70124D01*
X101516Y69395D01*
Y68605D01*
X101818Y67876D01*
X102221Y67473D01*
X102396Y67211D01*
X103182Y66685D01*
X103208Y66680D01*
Y66171D01*
X103182Y66165D01*
X102409Y65648D01*
X102376Y65635D01*
X101818Y65077D01*
X101516Y64347D01*
Y63558D01*
X101818Y62829D01*
X102316Y62331D01*
X102396Y62211D01*
X103182Y61686D01*
X103208Y61680D01*
Y61171D01*
X103182Y61165D01*
X102396Y60640D01*
X101870Y59853D01*
X101780Y59400D01*
X101651Y59314D01*
X99419Y57081D01*
X99087Y56585D01*
X98971Y56000D01*
Y52000D01*
X99087Y51415D01*
X99419Y50919D01*
X101726Y48611D01*
X101752Y48594D01*
X101870Y47998D01*
X102396Y47211D01*
X103182Y46685D01*
X103208Y46680D01*
Y46170D01*
X103182Y46165D01*
X102396Y45640D01*
X101870Y44853D01*
X101686Y43925D01*
X101729Y43707D01*
X100151Y42129D01*
X99819Y41633D01*
X99703Y41047D01*
Y37733D01*
X99819Y37148D01*
X100151Y36652D01*
X102884Y33919D01*
X103380Y33587D01*
X103966Y33471D01*
X124000D01*
X124585Y33587D01*
X125081Y33919D01*
X130428Y39265D01*
X130890Y39074D01*
Y37091D01*
X155512D01*
Y29528D01*
X59055D01*
X51181Y37402D01*
X39370D01*
Y47244D01*
X51181D01*
Y61024D01*
X39370D01*
Y70866D01*
X51181D01*
X59055Y78740D01*
X155512D01*
Y71177D01*
D02*
G37*
G36*
Y58874D02*
X145230D01*
Y61697D01*
X155512D01*
Y58874D01*
D02*
G37*
G36*
X142171D02*
X131856D01*
Y61697D01*
X142171D01*
Y58874D01*
D02*
G37*
G36*
X120291Y56063D02*
X120063Y55513D01*
Y55362D01*
X119480D01*
Y50410D01*
Y46363D01*
X114480D01*
Y45435D01*
X113048D01*
X112911Y45640D01*
X112125Y46165D01*
X112099Y46170D01*
Y46680D01*
X112125Y46685D01*
X112911Y47211D01*
X113437Y47998D01*
X113621Y48926D01*
X113437Y49853D01*
X112911Y50640D01*
X112125Y51165D01*
X112099Y51170D01*
Y51680D01*
X112125Y51686D01*
X112827Y52155D01*
X113138Y52059D01*
X113327Y51933D01*
Y51563D01*
X115500D01*
Y54039D01*
X116000D01*
Y54539D01*
X118673D01*
Y56563D01*
X120033D01*
X120291Y56063D01*
D02*
G37*
G36*
X144980Y49646D02*
X145480Y48665D01*
X145500Y48646D01*
X144894D01*
X143699Y49841D01*
X143281D01*
X142087Y48646D01*
X141480D01*
X141980Y49646D01*
X142480Y50646D01*
X144480D01*
X144980Y49646D01*
D02*
G37*
G36*
X144500Y47500D02*
X145525D01*
X144480Y45646D01*
X142500D01*
X141500Y47500D01*
X142500D01*
X143500Y48500D01*
X144500Y47500D01*
D02*
G37*
G36*
X140271Y49018D02*
X140222Y48646D01*
X140226D01*
X140322Y48158D01*
X140367Y48092D01*
X140297Y47988D01*
X140200Y47500D01*
X140222Y47390D01*
X140164Y46924D01*
X139913Y46571D01*
X130890D01*
Y43360D01*
X130831D01*
X130245Y43244D01*
X129749Y42912D01*
X125289Y38452D01*
X124827Y38643D01*
Y41410D01*
Y45488D01*
X129827D01*
Y47919D01*
X131301Y49394D01*
X139941D01*
X140271Y49018D01*
D02*
G37*
%LPC*%
G36*
X112024Y77378D02*
X109949D01*
Y75303D01*
X112024D01*
Y77378D01*
D02*
G37*
G36*
X108949D02*
X106874D01*
Y75303D01*
X108949D01*
Y77378D01*
D02*
G37*
G36*
X119744Y77272D02*
X117669D01*
Y75000D01*
X119744D01*
Y77272D01*
D02*
G37*
G36*
X112024Y74303D02*
X109949D01*
Y72228D01*
X112024D01*
Y74303D01*
D02*
G37*
G36*
X108949D02*
X106874D01*
Y72228D01*
X108949D01*
Y74303D01*
D02*
G37*
G36*
X97850Y77575D02*
X93094D01*
Y72031D01*
X97850D01*
Y73274D01*
X100575D01*
Y72228D01*
X105724D01*
Y77378D01*
X100575D01*
Y76332D01*
X97850D01*
Y77575D01*
D02*
G37*
G36*
X91945D02*
X87189D01*
Y72031D01*
X91945D01*
Y73391D01*
X92233Y73679D01*
X92535Y74409D01*
Y75198D01*
X92233Y75927D01*
X91945Y76216D01*
Y77575D01*
D02*
G37*
G36*
X61020Y72953D02*
X59980D01*
X58974Y72683D01*
X58073Y72163D01*
X57337Y71427D01*
X56817Y70526D01*
X56547Y69520D01*
Y68480D01*
X56817Y67474D01*
X57337Y66573D01*
X58073Y65837D01*
X58974Y65317D01*
X59980Y65047D01*
X61020D01*
X62026Y65317D01*
X62927Y65837D01*
X63663Y66573D01*
X64183Y67474D01*
X64453Y68480D01*
Y69520D01*
X64183Y70526D01*
X63663Y71427D01*
X62927Y72163D01*
X62026Y72683D01*
X61020Y72953D01*
D02*
G37*
G36*
X81827Y71363D02*
X71480D01*
Y66410D01*
Y62362D01*
X66480D01*
Y61426D01*
X66415Y61413D01*
X65919Y61081D01*
X64786Y59949D01*
X64303Y60079D01*
X64183Y60526D01*
X63663Y61427D01*
X62927Y62163D01*
X62026Y62683D01*
X61020Y62953D01*
X59980D01*
X58974Y62683D01*
X58073Y62163D01*
X57337Y61427D01*
X56817Y60526D01*
X56547Y59520D01*
Y58480D01*
X56817Y57474D01*
X57337Y56573D01*
X58073Y55837D01*
X58974Y55317D01*
X59980Y55047D01*
X61020D01*
X62026Y55317D01*
X62927Y55837D01*
X63471Y56381D01*
X63971Y56173D01*
Y51827D01*
X63471Y51619D01*
X62927Y52163D01*
X62026Y52683D01*
X61020Y52953D01*
X59980D01*
X58974Y52683D01*
X58073Y52163D01*
X57337Y51427D01*
X56817Y50526D01*
X56547Y49520D01*
Y48480D01*
X56817Y47474D01*
X57337Y46573D01*
X58073Y45837D01*
X58688Y45482D01*
X58554Y44982D01*
X56926D01*
X56341Y44866D01*
X55844Y44534D01*
X54966Y43655D01*
X54634Y43159D01*
X54518Y42574D01*
Y35426D01*
X54634Y34841D01*
X54966Y34345D01*
X56892Y32419D01*
X57388Y32087D01*
X57973Y31971D01*
X67669D01*
Y30728D01*
X72819D01*
Y30728D01*
X73181D01*
Y30728D01*
X75256D01*
Y33500D01*
X75756D01*
Y34000D01*
X78331D01*
Y36169D01*
X82772D01*
Y36878D01*
X83272Y37099D01*
X83891Y36685D01*
X84819Y36501D01*
X91905D01*
X92833Y36685D01*
X93620Y37211D01*
X93827Y37521D01*
X94182Y37876D01*
X94484Y38605D01*
Y39395D01*
X94182Y40124D01*
X93624Y40682D01*
X93447Y40756D01*
X92833Y41165D01*
X92808Y41170D01*
Y41680D01*
X92833Y41686D01*
X93620Y42211D01*
X93827Y42521D01*
X94182Y42876D01*
X94484Y43605D01*
Y44395D01*
X94182Y45124D01*
X93624Y45682D01*
X93447Y45756D01*
X92833Y46165D01*
X92808Y46170D01*
Y46680D01*
X92833Y46685D01*
X93620Y47211D01*
X94146Y47998D01*
X94330Y48926D01*
X94287Y49144D01*
X96081Y50938D01*
X96413Y51435D01*
X96529Y52020D01*
Y55831D01*
X96413Y56416D01*
X96081Y56912D01*
X94287Y58707D01*
X94330Y58925D01*
X94146Y59853D01*
X93620Y60640D01*
X92833Y61165D01*
X92808Y61171D01*
Y61680D01*
X92833Y61686D01*
X93620Y62211D01*
X93827Y62521D01*
X94182Y62876D01*
X94484Y63605D01*
Y64395D01*
X94182Y65124D01*
X93624Y65682D01*
X93447Y65756D01*
X92833Y66165D01*
X92808Y66171D01*
Y66680D01*
X92833Y66685D01*
X93620Y67211D01*
X94146Y67998D01*
X94330Y68925D01*
X94146Y69853D01*
X93620Y70640D01*
X92833Y71165D01*
X91905Y71350D01*
X84819D01*
X83891Y71165D01*
X83104Y70640D01*
X82968Y70435D01*
X81827D01*
Y71363D01*
D02*
G37*
G36*
X78331Y33000D02*
X76256D01*
Y30728D01*
X78331D01*
Y33000D01*
D02*
G37*
%LPD*%
G36*
X83104Y62211D02*
X83891Y61686D01*
X83917Y61680D01*
Y61171D01*
X83891Y61165D01*
X83104Y60640D01*
X82579Y59853D01*
X82394Y58925D01*
X82579Y57998D01*
X83104Y57211D01*
X83891Y56686D01*
X83917Y56680D01*
Y56171D01*
X83891Y56165D01*
X83173Y55686D01*
X82894Y55764D01*
X82673Y55894D01*
Y56437D01*
X77327D01*
Y54459D01*
X76875Y54245D01*
X76827Y54285D01*
Y57449D01*
Y61488D01*
X81827D01*
Y62416D01*
X82968D01*
X83104Y62211D01*
D02*
G37*
G36*
X67228Y46690D02*
Y46181D01*
X67228D01*
Y45819D01*
X67228D01*
Y43744D01*
X70000D01*
Y42744D01*
X67228D01*
Y40669D01*
X68063D01*
Y36272D01*
X67669D01*
Y35029D01*
X64945D01*
X64453Y35047D01*
Y38500D01*
X60500D01*
Y39500D01*
X64453D01*
Y42953D01*
X63566D01*
X63375Y43415D01*
X66581Y46621D01*
X66728Y46841D01*
X67228Y46690D01*
D02*
G37*
%LPC*%
G36*
X118673Y53539D02*
X116500D01*
Y51563D01*
X118673D01*
Y53539D01*
D02*
G37*
%LPD*%
D12*
X70795Y44039D02*
X75000D01*
X70000Y43244D02*
X70795Y44039D01*
X61250Y43453D02*
X65500Y47703D01*
X56926Y43453D02*
X61250D01*
X56047Y42574D02*
X56926Y43453D01*
X57973Y33500D02*
X70244D01*
X56047Y35426D02*
X57973Y33500D01*
X70158Y33914D02*
X70539Y34295D01*
X56047Y35426D02*
Y42574D01*
X65500Y47703D02*
Y58500D01*
X113189Y53982D02*
X115943D01*
X107711D02*
X113189D01*
Y55829D01*
X113066Y55952D02*
X113189Y55829D01*
X107653Y53926D02*
X107711Y53982D01*
X115943D02*
X116000Y54039D01*
X127971Y68252D02*
X130327Y65897D01*
Y50582D02*
Y65897D01*
X128686Y48941D02*
X130327Y50582D01*
X128130Y48941D02*
X128686D01*
X127154Y47965D02*
X128130Y48941D01*
X126591Y68252D02*
X127971D01*
X125614Y69229D02*
Y73858D01*
Y69229D02*
X126591Y68252D01*
X122153Y47965D02*
X127154D01*
X124000Y35000D02*
X130831Y41831D01*
X143701D01*
X103966Y35000D02*
X124000D01*
X74173Y68906D02*
X88342D01*
X95473Y74803D02*
X103150D01*
X88362Y43925D02*
X88437Y44000D01*
X92500D01*
X103500Y63953D02*
X103527Y63925D01*
X95000Y52020D02*
Y55831D01*
X70170Y48926D02*
X88362D01*
X91905Y58925D02*
X95000Y55831D01*
X88437Y54000D02*
X92500D01*
X88362Y53926D02*
X88437Y54000D01*
X100500Y52000D02*
X102807Y49693D01*
X100500Y52000D02*
Y56000D01*
X102733Y58233D01*
X102943D02*
X103635Y58925D01*
X102733Y58233D02*
X102943D01*
X75535Y38925D02*
X88362D01*
X102807Y49693D02*
X102868D01*
X103635Y48926D02*
X107653D01*
X102868Y49693D02*
X103635Y48926D01*
X116000Y58925D02*
X121000D01*
X103635D02*
X116000D01*
X121000D02*
X125681D01*
X91905Y48926D02*
X95000Y52020D01*
X88362Y48926D02*
X91905D01*
X80330Y43925D02*
X88362D01*
X80018Y53943D02*
X88345D01*
X88362Y53926D01*
X103527Y63925D02*
X115819D01*
X65500Y58500D02*
X67000Y60000D01*
X70539Y34295D02*
Y38500D01*
X67000Y60000D02*
X69040D01*
X69153Y59886D01*
X80000Y53961D02*
X80018Y53943D01*
X101232Y37733D02*
X103966Y35000D01*
X101232Y41047D02*
X104110Y43925D01*
X107653D01*
X101232Y37733D02*
Y41047D01*
X143701Y54134D02*
Y66437D01*
X115819Y63925D02*
X116000Y63744D01*
X88362Y58925D02*
X91905D01*
X125681D02*
X126000Y59244D01*
X70000Y48756D02*
X70170Y48926D01*
X80000Y44256D02*
X80330Y43925D01*
X125614Y73858D02*
X125756Y74000D01*
X107653Y68925D02*
X120693D01*
X75461Y39000D02*
X75535Y38925D01*
X122153Y43886D02*
Y47965D01*
X74134Y59906D02*
X74154Y59926D01*
X69153Y59886D02*
X69173Y59906D01*
X74134D01*
X74154Y59926D02*
Y63965D01*
X79173Y63945D02*
X88342D01*
X88362Y63925D01*
X79154Y63965D02*
X79173Y63945D01*
X117134Y43906D02*
X117154Y43886D01*
X107653Y43925D02*
X107673Y43906D01*
X117134D01*
X107673Y38945D02*
X122134D01*
X107653Y38925D02*
X107673Y38945D01*
X122134D02*
X122153Y38965D01*
X74154Y68886D02*
X74173Y68906D01*
X88342D02*
X88362Y68925D01*
D13*
X74154Y63965D02*
D03*
Y68886D02*
D03*
X80000Y53961D02*
D03*
Y49039D02*
D03*
X75000Y48961D02*
D03*
Y44039D02*
D03*
X116000Y58961D02*
D03*
Y54039D02*
D03*
X121000Y63961D02*
D03*
Y59039D02*
D03*
X122153Y43886D02*
D03*
Y38965D02*
D03*
Y52886D02*
D03*
Y47965D02*
D03*
X117154Y38965D02*
D03*
Y43886D02*
D03*
X127154Y52886D02*
D03*
Y47965D02*
D03*
X74154Y55004D02*
D03*
Y59926D02*
D03*
X69153Y54965D02*
D03*
Y59886D02*
D03*
X79154Y68886D02*
D03*
Y63965D02*
D03*
D14*
X107653Y38925D02*
D03*
Y43925D02*
D03*
Y48926D02*
D03*
Y53926D02*
D03*
Y58925D02*
D03*
Y63925D02*
D03*
Y68925D02*
D03*
X88362Y38925D02*
D03*
Y43925D02*
D03*
Y48926D02*
D03*
Y53926D02*
D03*
Y58925D02*
D03*
Y63925D02*
D03*
Y68925D02*
D03*
D15*
X143480Y50277D02*
D03*
D16*
X143500Y47500D02*
D03*
D17*
X116000Y63744D02*
D03*
Y69256D02*
D03*
X80000Y44256D02*
D03*
Y38744D02*
D03*
X70000Y43244D02*
D03*
Y48756D02*
D03*
X126000Y64756D02*
D03*
Y59244D02*
D03*
D18*
X70244Y33500D02*
D03*
X75756D02*
D03*
X125756Y74500D02*
D03*
X120244D02*
D03*
D19*
X143701Y66437D02*
D03*
Y41831D02*
D03*
Y54134D02*
D03*
D20*
X120693Y69425D02*
D03*
X125614D02*
D03*
X75461Y38500D02*
D03*
X70539D02*
D03*
D21*
X109449Y74803D02*
D03*
X103150D02*
D03*
D22*
X95472Y74803D02*
D03*
X89567D02*
D03*
D23*
X141475Y47500D02*
G03*
X145525Y47500I2025J179D01*
G01*
X145500Y48646D02*
G03*
X141500Y48646I-2000J0D01*
G01*
X143500Y48500D02*
X144500Y47500D01*
X142500D02*
X143500Y48500D01*
X141500Y47500D02*
X142500D01*
X144500D02*
X145500D01*
X143699Y49841D02*
X144894Y48646D01*
X145500D01*
X141500D02*
X142087D01*
X143281Y49841D01*
X143480D02*
X143699D01*
X143281D02*
X143480D01*
D35*
X60500Y69000D02*
D03*
Y59000D02*
D03*
Y49000D02*
D03*
D36*
Y39000D02*
D03*
D37*
X122047Y55118D02*
D03*
X126969D02*
D03*
X113066Y55952D02*
D03*
X90551Y74803D02*
D03*
X98405Y44752D02*
D03*
X97669Y62087D02*
D03*
X125674Y63000D02*
D03*
X115150Y75283D02*
D03*
X133858Y48228D02*
D03*
X80122Y59295D02*
D03*
X92500Y44000D02*
D03*
X103500Y69000D02*
D03*
Y63953D02*
D03*
X92500Y54000D02*
D03*
X69500Y53500D02*
D03*
X92500Y39000D02*
D03*
X121000Y62500D02*
D03*
X92500Y64000D02*
D03*
X143701Y54134D02*
D03*
X75000Y53000D02*
D03*
M02*
