G04*
G04 #@! TF.GenerationSoftware,Altium Limited,Altium Designer,22.9.1 (49)*
G04*
G04 Layer_Color=65535*
%FSLAX25Y25*%
%MOIN*%
G70*
G04*
G04 #@! TF.SameCoordinates,D6CDF33A-5527-4A7C-ACAA-F1F7B6BCBC96*
G04*
G04*
G04 #@! TF.FilePolarity,Positive*
G04*
G01*
G75*
%ADD10C,0.00984*%
%ADD11C,0.00787*%
%ADD12C,0.01000*%
D10*
X88854Y72469D02*
G03*
X88854Y72469I-492J0D01*
G01*
D11*
X94858Y36603D02*
X101157D01*
X94858Y71248D02*
X101157D01*
Y36603D02*
Y71248D01*
X94858Y36603D02*
Y71248D01*
X55500Y34000D02*
X65500D01*
X55500D02*
Y74000D01*
X65500Y34000D02*
Y74000D01*
X55500D02*
X65500D01*
X112205Y73622D02*
Y75984D01*
X91732Y73425D02*
X93307D01*
X91732Y76181D02*
X93307D01*
D12*
X67586Y72835D02*
Y76771D01*
X69554D01*
X70210Y76115D01*
Y74803D01*
X69554Y74147D01*
X67586D01*
X68898D02*
X70210Y72835D01*
X74146Y76771D02*
X71522D01*
Y74803D01*
X72834Y75459D01*
X73490D01*
X74146Y74803D01*
Y73491D01*
X73490Y72835D01*
X72178D01*
X71522Y73491D01*
X91864Y35432D02*
Y32153D01*
X92520Y31497D01*
X93832D01*
X94488Y32153D01*
Y35432D01*
X95800Y31497D02*
X97112D01*
X96456D01*
Y35432D01*
X95800Y34776D01*
X82021D02*
X81365Y35432D01*
X80053D01*
X79397Y34776D01*
Y32153D01*
X80053Y31497D01*
X81365D01*
X82021Y32153D01*
X85301Y31497D02*
Y35432D01*
X83333Y33465D01*
X85957D01*
X133202Y76115D02*
X132546Y76771D01*
X131234D01*
X130578Y76115D01*
Y73491D01*
X131234Y72835D01*
X132546D01*
X133202Y73491D01*
X134514Y76771D02*
X137138D01*
Y76115D01*
X134514Y73491D01*
Y72835D01*
X123033Y31497D02*
Y35432D01*
X125001D01*
X125657Y34776D01*
Y33465D01*
X125001Y32809D01*
X123033D01*
X124345D02*
X125657Y31497D01*
X126969D02*
X128281D01*
X127625D01*
Y35432D01*
X126969Y34776D01*
X132872Y31497D02*
X130249D01*
X132872Y34121D01*
Y34776D01*
X132217Y35432D01*
X130905D01*
X130249Y34776D01*
X109254Y31497D02*
Y35432D01*
X111221D01*
X111877Y34776D01*
Y33465D01*
X111221Y32809D01*
X109254D01*
X110565D02*
X111877Y31497D01*
X113189D02*
X114501D01*
X113845D01*
Y35432D01*
X113189Y34776D01*
X116469D02*
X117125Y35432D01*
X118437D01*
X119093Y34776D01*
Y32153D01*
X118437Y31497D01*
X117125D01*
X116469Y32153D01*
Y34776D01*
X70865Y63649D02*
X66930D01*
Y65617D01*
X67586Y66273D01*
X68898D01*
X69554Y65617D01*
Y63649D01*
Y64961D02*
X70865Y66273D01*
Y70209D02*
Y67585D01*
X68242Y70209D01*
X67586D01*
X66930Y69553D01*
Y68241D01*
X67586Y67585D01*
X77429Y72835D02*
Y76771D01*
X79397D01*
X80053Y76115D01*
Y74803D01*
X79397Y74147D01*
X77429D01*
X78741D02*
X80053Y72835D01*
X81365Y76115D02*
X82021Y76771D01*
X83333D01*
X83988Y76115D01*
Y75459D01*
X83333Y74803D01*
X82677D01*
X83333D01*
X83988Y74147D01*
Y73491D01*
X83333Y72835D01*
X82021D01*
X81365Y73491D01*
X95095Y68422D02*
Y64486D01*
X93127D01*
X92471Y65142D01*
Y66454D01*
X93127Y67110D01*
X95095D01*
X93783D02*
X92471Y68422D01*
X91159D02*
X89847D01*
X90503D01*
Y64486D01*
X91159Y65142D01*
M02*
