G04*
G04 #@! TF.GenerationSoftware,Altium Limited,Altium Designer,22.9.1 (49)*
G04*
G04 Layer_Color=16711935*
%FSLAX25Y25*%
%MOIN*%
G70*
G04*
G04 #@! TF.SameCoordinates,D6CDF33A-5527-4A7C-ACAA-F1F7B6BCBC96*
G04*
G04*
G04 #@! TF.FilePolarity,Negative*
G04*
G01*
G75*
%ADD15C,0.00394*%
%ADD16C,0.01181*%
%ADD23C,0.00500*%
%ADD27R,0.03950X0.04343*%
%ADD28R,0.24422X0.08280*%
%ADD32C,0.06706*%
%ADD33R,0.06706X0.06706*%
%ADD34C,0.02769*%
G36*
X51181Y37402D02*
X39370D01*
Y70866D01*
X51181D01*
Y37402D01*
D02*
G37*
G36*
X142374Y57354D02*
X141133Y58932D01*
Y62007D01*
X142480Y63354D01*
X144480D01*
X145783Y62051D01*
X145859Y58971D01*
X144587Y57354D01*
X142374D01*
D02*
G37*
D15*
X143480Y58223D02*
D03*
D16*
X143500Y61000D02*
D03*
D23*
X141133Y59593D02*
G03*
X145828Y59593I2348J111D01*
G01*
Y60865D02*
G03*
X141133Y60865I-2348J137D01*
G01*
X145828Y59593D02*
Y60865D01*
X141133Y59593D02*
Y60865D01*
D27*
X99181Y51595D02*
D03*
X93669D02*
D03*
X99181Y56595D02*
D03*
X93669D02*
D03*
D28*
X143701Y41831D02*
D03*
Y54134D02*
D03*
Y66437D02*
D03*
D32*
X60500Y69000D02*
D03*
Y59000D02*
D03*
Y49000D02*
D03*
D33*
Y39000D02*
D03*
D34*
X122047Y55118D02*
D03*
X126969D02*
D03*
X113066Y55952D02*
D03*
X90551Y74803D02*
D03*
X98405Y44752D02*
D03*
X97669Y62087D02*
D03*
X125674Y63000D02*
D03*
X115150Y75283D02*
D03*
X133858Y48228D02*
D03*
X80122Y59295D02*
D03*
X92500Y44000D02*
D03*
X103500Y69000D02*
D03*
Y63953D02*
D03*
X92500Y54000D02*
D03*
X69500Y53500D02*
D03*
X92500Y39000D02*
D03*
X121000Y62500D02*
D03*
X92500Y64000D02*
D03*
X143701Y54134D02*
D03*
X75000Y53000D02*
D03*
M02*
