G04*
G04 #@! TF.GenerationSoftware,Altium Limited,Altium Designer,22.9.1 (49)*
G04*
G04 Layer_Physical_Order=2*
G04 Layer_Color=16711680*
%FSLAX25Y25*%
%MOIN*%
G70*
G04*
G04 #@! TF.SameCoordinates,D6CDF33A-5527-4A7C-ACAA-F1F7B6BCBC96*
G04*
G04*
G04 #@! TF.FilePolarity,Positive*
G04*
G01*
G75*
%ADD12C,0.01000*%
%ADD15C,0.00394*%
%ADD16C,0.01181*%
%ADD18R,0.03150X0.03543*%
%ADD19R,0.23622X0.07480*%
%ADD23C,0.00500*%
%ADD35C,0.05906*%
%ADD36R,0.05906X0.05906*%
%ADD37C,0.01968*%
G36*
X155512Y71177D02*
X130890D01*
Y69464D01*
X130390Y69138D01*
X130027Y69210D01*
X112023D01*
X111437Y69094D01*
X110941Y68762D01*
X110145Y67966D01*
X105670D01*
X105392Y68382D01*
X105484Y68605D01*
Y69395D01*
X105182Y70124D01*
X104624Y70682D01*
X103895Y70984D01*
X103105D01*
X102376Y70682D01*
X102223Y70529D01*
X69000D01*
X68415Y70413D01*
X67919Y70081D01*
X60790Y62953D01*
X59980D01*
X58974Y62683D01*
X58073Y62163D01*
X57529Y61619D01*
X57029Y61826D01*
Y63367D01*
X58978Y65316D01*
X59980Y65047D01*
X61020D01*
X62026Y65317D01*
X62927Y65837D01*
X63663Y66573D01*
X64183Y67474D01*
X64453Y68480D01*
Y69520D01*
X64184Y70522D01*
X66937Y73274D01*
X89274D01*
X89427Y73121D01*
X90157Y72819D01*
X90946D01*
X91675Y73121D01*
X92233Y73679D01*
X92535Y74409D01*
Y75198D01*
X92233Y75927D01*
X91675Y76485D01*
X90946Y76787D01*
X90157D01*
X89427Y76485D01*
X89274Y76332D01*
X66303D01*
X65718Y76216D01*
X65222Y75885D01*
X62022Y72685D01*
X61020Y72953D01*
X59980D01*
X58974Y72683D01*
X58073Y72163D01*
X57337Y71427D01*
X56817Y70526D01*
X56547Y69520D01*
Y68480D01*
X56815Y67478D01*
X54419Y65081D01*
X54087Y64585D01*
X53971Y64000D01*
Y57000D01*
X54087Y56415D01*
X54419Y55919D01*
X57787Y52550D01*
X57911Y52383D01*
X57804Y51894D01*
X57337Y51427D01*
X56817Y50526D01*
X56547Y49520D01*
Y48480D01*
X56817Y47474D01*
X57337Y46573D01*
X58073Y45837D01*
X58974Y45317D01*
X59980Y45047D01*
X61020D01*
X62026Y45317D01*
X62927Y45837D01*
X63663Y46573D01*
X64181Y47471D01*
X71399D01*
X80951Y37918D01*
X81447Y37587D01*
X82033Y37471D01*
X91223D01*
X91376Y37318D01*
X92105Y37016D01*
X92895D01*
X93624Y37318D01*
X94182Y37876D01*
X94484Y38605D01*
Y39395D01*
X94182Y40124D01*
X93624Y40682D01*
X92895Y40984D01*
X92105D01*
X91376Y40682D01*
X91223Y40529D01*
X82666D01*
X73114Y50081D01*
X72618Y50413D01*
X72033Y50529D01*
X64181D01*
X63663Y51427D01*
X63581Y51509D01*
X63773Y51971D01*
X68223D01*
X68376Y51818D01*
X69105Y51516D01*
X69895D01*
X70624Y51818D01*
X71182Y52376D01*
X71484Y53105D01*
Y53321D01*
X72118Y53955D01*
X72798D01*
X73076Y53539D01*
X73016Y53395D01*
Y52605D01*
X73318Y51876D01*
X73876Y51318D01*
X74605Y51016D01*
X74957D01*
X83129Y42844D01*
X83625Y42513D01*
X84210Y42396D01*
X91298D01*
X91376Y42318D01*
X92105Y42016D01*
X92895D01*
X93624Y42318D01*
X94182Y42876D01*
X94484Y43605D01*
Y44395D01*
X94182Y45124D01*
X93624Y45682D01*
X92895Y45984D01*
X92928Y46471D01*
X122500D01*
X123085Y46587D01*
X123581Y46919D01*
X128050Y51387D01*
X128382Y51883D01*
X128498Y52469D01*
Y53841D01*
X128651Y53994D01*
X128953Y54723D01*
Y55513D01*
X128651Y56242D01*
X128448Y56445D01*
Y56581D01*
X128331Y57167D01*
X128000Y57663D01*
X123163Y62500D01*
X124815Y64152D01*
X126402D01*
X127623Y62931D01*
Y60612D01*
X127739Y60026D01*
X128071Y59530D01*
X130890Y56711D01*
Y49394D01*
X142171D01*
Y46571D01*
X130890D01*
Y37091D01*
X155512D01*
Y29528D01*
X59055D01*
X51181Y37402D01*
X39370D01*
Y47244D01*
X51181D01*
Y61024D01*
X39370D01*
Y70866D01*
X51181D01*
X59055Y78740D01*
X155512D01*
Y71177D01*
D02*
G37*
G36*
X145525Y61000D02*
X144500D01*
X143500Y60000D01*
X142500Y61000D01*
X141500D01*
X142500Y62854D01*
X144480D01*
X145525Y61000D01*
D02*
G37*
G36*
X145480Y59835D02*
X144980Y58854D01*
X144480Y57854D01*
X142480D01*
X141980Y58854D01*
X141480Y59854D01*
X142087D01*
X143281Y58659D01*
X143699D01*
X144894Y59854D01*
X145500D01*
X145480Y59835D01*
D02*
G37*
G36*
X93346Y67009D02*
X92321Y65984D01*
X92105D01*
X91376Y65682D01*
X90818Y65124D01*
X90516Y64395D01*
Y63605D01*
X90818Y62876D01*
X91376Y62318D01*
X92105Y62016D01*
X92895D01*
X93624Y62318D01*
X94182Y62876D01*
X94484Y63605D01*
Y63821D01*
X95570Y64908D01*
X101298D01*
X101576Y64492D01*
X101516Y64347D01*
Y63558D01*
X101818Y62829D01*
X102376Y62271D01*
X103105Y61968D01*
X103895D01*
X104624Y62271D01*
X104777Y62423D01*
X112579D01*
X120063Y54940D01*
Y54723D01*
X120365Y53994D01*
X120923Y53436D01*
X121652Y53134D01*
X122442D01*
X123171Y53436D01*
X123729Y53994D01*
X124031Y54723D01*
Y55513D01*
X123729Y56242D01*
X123171Y56800D01*
X122442Y57102D01*
X122226D01*
X114294Y65034D01*
X113798Y65366D01*
X113213Y65482D01*
X113017D01*
X112767Y65982D01*
X112894Y66152D01*
X121835D01*
X122027Y65690D01*
X120821Y64484D01*
X120605D01*
X119876Y64182D01*
X119318Y63624D01*
X119016Y62895D01*
Y62105D01*
X119318Y61376D01*
X119876Y60818D01*
X120605Y60516D01*
X120821D01*
X125230Y56107D01*
X124984Y55513D01*
Y54723D01*
X125286Y53994D01*
X125439Y53841D01*
Y53102D01*
X121867Y49529D01*
X101756D01*
Y51095D01*
X99181D01*
Y52095D01*
X101756D01*
Y53823D01*
Y56094D01*
X99181D01*
Y56595D01*
X98681D01*
Y59366D01*
X96607D01*
Y59366D01*
X96244D01*
Y59366D01*
X91095D01*
Y57294D01*
X90754Y57014D01*
X71484D01*
X70899Y56897D01*
X70403Y56566D01*
X69321Y55484D01*
X69105D01*
X68376Y55182D01*
X68223Y55029D01*
X62528D01*
X62394Y55529D01*
X62927Y55837D01*
X63663Y56573D01*
X64183Y57474D01*
X64453Y58480D01*
Y59520D01*
X64183Y60526D01*
X63663Y61427D01*
X63626Y61464D01*
X69634Y67471D01*
X93154D01*
X93346Y67009D01*
D02*
G37*
G36*
X155512Y46571D02*
X145230D01*
Y49394D01*
X155512D01*
Y46571D01*
D02*
G37*
G36*
X89792Y53455D02*
X89419Y53081D01*
X89087Y52585D01*
X88971Y52000D01*
Y49500D01*
X89087Y48915D01*
X89419Y48419D01*
X90919Y46919D01*
X91415Y46587D01*
X92000Y46471D01*
X92072D01*
X92105Y45984D01*
X91376Y45682D01*
X91149Y45455D01*
X84844D01*
X76984Y53315D01*
Y53395D01*
X76924Y53539D01*
X77202Y53955D01*
X89585D01*
X89792Y53455D01*
D02*
G37*
%LPC*%
G36*
X64453Y42953D02*
X61000D01*
Y39500D01*
X64453D01*
Y42953D01*
D02*
G37*
G36*
X60000D02*
X56547D01*
Y39500D01*
X60000D01*
Y42953D01*
D02*
G37*
G36*
X64453Y38500D02*
X61000D01*
Y35047D01*
X64453D01*
Y38500D01*
D02*
G37*
G36*
X60000D02*
X56547D01*
Y35047D01*
X60000D01*
Y38500D01*
D02*
G37*
G36*
X101756Y59366D02*
X99681D01*
Y57095D01*
X101756D01*
Y59366D01*
D02*
G37*
%LPD*%
D12*
X126919Y55168D02*
X126969Y55118D01*
X121000Y62500D02*
X126919Y56581D01*
Y55168D02*
Y56581D01*
X126969Y52469D02*
Y55118D01*
X113213Y63953D02*
X122047Y55118D01*
X103500Y63953D02*
X113213D01*
X122500Y48000D02*
X126969Y52469D01*
X60500Y69000D02*
X66303Y74803D01*
X90551D01*
X143405Y66733D02*
X143701Y66437D01*
X130975Y66733D02*
X143405D01*
X112023Y67681D02*
X130027D01*
X130975Y66733D01*
X129152Y60612D02*
Y63565D01*
Y60612D02*
X135630Y54134D01*
X127036Y65681D02*
X129152Y63565D01*
X124181Y65681D02*
X127036D01*
X121000Y62500D02*
X124181Y65681D01*
X110778Y66437D02*
X112023Y67681D01*
X143480Y54354D02*
Y57854D01*
X94937Y66437D02*
X110778D01*
X135630Y54134D02*
X143701D01*
X143480Y57854D02*
Y58223D01*
Y54354D02*
X143701Y54134D01*
X55500Y57000D02*
Y64000D01*
X60500Y69000D01*
X55500Y57000D02*
X59000Y53500D01*
X69500D01*
X92000Y48000D02*
X122500D01*
X90500Y49500D02*
X92000Y48000D01*
X90500Y49500D02*
Y52000D01*
X92500Y54000D01*
X90754Y55484D02*
X92238Y54000D01*
X75136Y53000D02*
X84210Y43925D01*
X92426D01*
X92500Y44000D01*
X69000Y69000D02*
X103500D01*
X59750Y59750D02*
X69000Y69000D01*
X92238Y54000D02*
X92500D01*
X69500Y53500D02*
X71484Y55484D01*
X90754D01*
X92500Y64000D02*
X94937Y66437D01*
X59750Y59577D02*
Y59750D01*
X60500Y49000D02*
X72033D01*
X82033Y39000D01*
X92500D01*
X75000Y53000D02*
X75136D01*
X143701Y41831D02*
Y54134D01*
D15*
X143480Y58223D02*
D03*
D16*
X143500Y61000D02*
D03*
D18*
X99181Y51595D02*
D03*
X93669D02*
D03*
X99181Y56595D02*
D03*
X93669D02*
D03*
D19*
X143701Y41831D02*
D03*
Y54134D02*
D03*
Y66437D02*
D03*
D23*
X143480Y57854D02*
G03*
X145500Y59854I20J2000D01*
G01*
X141500D02*
G03*
X143480Y57854I2000J0D01*
G01*
X145525Y61000D02*
G03*
X141475Y61000I-2025J-179D01*
G01*
X143480Y58659D02*
X143699D01*
X143281D02*
X143480D01*
X141500Y59854D02*
X142087D01*
X143500Y60000D02*
X144500Y61000D01*
X142500D02*
X143500Y60000D01*
X141500Y61000D02*
X142500D01*
X144500D02*
X145500D01*
X143699Y58659D02*
X144894Y59854D01*
X145500D01*
X142087D02*
X143281Y58659D01*
D35*
X60500Y69000D02*
D03*
Y59000D02*
D03*
Y49000D02*
D03*
D36*
Y39000D02*
D03*
D37*
X122047Y55118D02*
D03*
X126969D02*
D03*
X113066Y55952D02*
D03*
X90551Y74803D02*
D03*
X98405Y44752D02*
D03*
X97669Y62087D02*
D03*
X125674Y63000D02*
D03*
X115150Y75283D02*
D03*
X133858Y48228D02*
D03*
X80122Y59295D02*
D03*
X92500Y44000D02*
D03*
X103500Y69000D02*
D03*
Y63953D02*
D03*
X92500Y54000D02*
D03*
X69500Y53500D02*
D03*
X92500Y39000D02*
D03*
X121000Y62500D02*
D03*
X92500Y64000D02*
D03*
X143701Y54134D02*
D03*
X75000Y53000D02*
D03*
M02*
