M48
;Layer_Color=9474304
;FILE_FORMAT=2:5
INCH,TZ
;TYPE=PLATED
T1F00S00C0.00984
T2F00S00C0.03543
%
T01
X69500Y53500
X75000Y53000
X80122Y59295
X92500Y64000
X97669Y62087
X103500Y63953
Y69000
X115150Y75283
X121000Y62500
X125674Y63000
X126969Y55118
X122047
X113066Y55952
X92500Y54000
Y44000
Y39000
X98405Y44752
X90551Y74803
X133858Y48228
X143701Y54134
T02
X60500Y39000
Y49000
Y59000
Y69000
M30
